PathFileType	4	(X/Y/Z)	marker.trc
DataRate	CameraRate	NumFrames	NumMarkers	Units	OrigDataRate	OrigDataStartFrame	OrigNumFrames
128	128	17	6	m	128	963	2567
Frame#	Time	US29-1	US29-2	US29-3	US30-1	US30-2	US30-3	
		X1	Y1	Z1	X2	Y2	Z2	X3	Y3	Z3	X4	Y4	Z4	X5	Y5	Z5	X6	Y6	Z6	

962	7.507812	0.00748815527185798	0.238520681858063	0.158345013856888	0.0305200256407261	0.255606114864349	0.132464811205864	0.00520033435896039	0.261384397745132	0.160310462117195	-0.0493399389088154	0.258985847234726	0.104616180062294	-0.044922661036253	0.248378962278366	0.127085953950882	-0.0506173372268677	0.270480364561081	0.127462550997734	
963	7.515625	0.000549298361875117	0.236845374107361	0.159703060984612	0.0238959286361933	0.253537446260452	0.133822247385979	-0.00137202662881464	0.259738117456436	0.161670908331871	-0.0557844676077366	0.257915943861008	0.105773784220219	-0.0515747740864754	0.247273311018944	0.128303036093712	-0.0569483451545238	0.269459545612335	0.128618210554123	
964	7.523437	-0.00634021684527397	0.235222682356834	0.161142468452454	0.0173311270773411	0.251668393611908	0.135279729962349	-0.00798360724002123	0.258187383413315	0.163044720888138	-0.0622686482965946	0.256987392902374	0.106960989534855	-0.0582691878080368	0.246229723095894	0.129524886608124	-0.063292421400547	0.268621355295181	0.12978121638298	
965	7.53125	-0.0131834978237748	0.233724310994148	0.162575945258141	0.0107607785612345	0.24981889128685	0.136736482381821	-0.0146598685532808	0.256664663553238	0.16441947221756	-0.0686837583780289	0.256145775318146	0.108138613402843	-0.0648308172821999	0.245440438389778	0.130802974104881	-0.0696683004498482	0.267816662788391	0.130944848060608	
966	7.539062	-0.0202205516397953	0.232329800724983	0.164030909538269	0.00404403498396277	0.248043477535248	0.13818496465683	-0.0212818291038275	0.255286872386932	0.165847033262253	-0.0751003623008728	0.255415409803391	0.109421283006668	-0.0714107230305672	0.244619235396385	0.132087707519531	-0.0760870426893234	0.267153263092041	0.132180616259575	
967	7.546875	-0.0271522700786591	0.231022670865059	0.165487125515938	-0.00268412451259792	0.246425479650497	0.139466345310211	-0.0279671214520931	0.254022181034088	0.167305484414101	-0.0815915465354919	0.254716724157333	0.110699996352196	-0.0781128704547882	0.243892133235931	0.133460327982903	-0.0823788866400719	0.26653265953064	0.133428558707237	
968	7.554687	-0.0341820158064365	0.22979611158371	0.167013958096504	-0.00937393587082624	0.244890883564949	0.141068756580353	-0.0346856340765953	0.25280749797821	0.168763443827629	-0.0881012007594109	0.254164606332779	0.112024560570717	-0.0849148780107498	0.243297562003136	0.134817466139793	-0.0888533815741539	0.266020745038986	0.134683132171631	
969	7.5625	-0.0412012971937656	0.228704795241356	0.168478235602379	-0.0160830020904541	0.243384271860123	0.142600655555725	-0.0413642302155495	0.251737326383591	0.170257657766342	-0.0946177840232849	0.253652423620224	0.113332889974117	-0.0915782153606415	0.242832481861115	0.136210173368454	-0.0952257961034775	0.265592753887177	0.136003628373146	
970	7.570312	-0.0481789670884609	0.227696448564529	0.170100450515747	-0.0228310972452164	0.242018684744835	0.144064605236053	-0.0480641387403011	0.250773012638092	0.171736896038055	-0.101156875491142	0.253304839134216	0.114653997123241	-0.0981676131486893	0.242473587393761	0.137758553028107	-0.101705007255077	0.265283644199371	0.137475982308388	
971	7.578125	-0.0551303960382938	0.226816803216934	0.171625405550003	-0.0295534394681454	0.240765258669853	0.145677000284195	-0.0547787435352802	0.249897435307503	0.173207148909569	-0.107596889138222	0.253001034259796	0.115968756377697	-0.104842558503151	0.24216665327549	0.13909138739109	-0.107945904135704	0.265074461698532	0.13873316347599	
972	7.585937	-0.0621201209723949	0.226054504513741	0.173106670379639	-0.0362084843218327	0.239616960287094	0.147232010960579	-0.0614071264863014	0.249146729707718	0.174640625715256	-0.113999962806702	0.252866178750992	0.117219842970371	-0.111477814614773	0.242035001516342	0.140425354242325	-0.114308454096317	0.265025079250336	0.139996066689491	
973	7.59375	-0.0690257400274277	0.22539134323597	0.17460373044014	-0.0428343750536442	0.23859766125679	0.148801103234291	-0.0680317506194115	0.248483046889305	0.176123112440109	-0.120372906327248	0.252718836069107	0.118503071367741	-0.118086375296116	0.24193087220192	0.141704693436623	-0.120586052536964	0.264940977096558	0.14124296605587	
974	7.601562	-0.0759240090847015	0.224852249026299	0.176040813326836	-0.0494558997452259	0.237659960985184	0.150283575057983	-0.0746225342154503	0.247934058308601	0.177542194724083	-0.126718372106552	0.252737790346146	0.119733594357967	-0.124602325260639	0.241904005408287	0.143011033535004	-0.1268699914217	0.26494288444519	0.142441734671593	
975	7.609375	-0.0827114954590797	0.224377378821373	0.177550062537193	-0.0560585223138332	0.236853286623955	0.151814103126526	-0.0811485424637794	0.247458025813103	0.178900748491287	-0.133031010627747	0.252876043319702	0.120962075889111	-0.131113693118095	0.242061033844948	0.144255980849266	-0.132997885346413	0.265171468257904	0.143639296293259	
976	7.617187	-0.0894681066274643	0.224026292562485	0.178906202316284	-0.062610387802124	0.236120194196701	0.153193056583405	-0.0877436175942421	0.247105285525322	0.180598303675652	-0.139197245240211	0.253074049949646	0.122115403413773	-0.137531489133835	0.242279753088951	0.145474702119827	-0.139107719063759	0.265460163354874	0.144800588488579	
977	7.625	-0.0961866080760956	0.223851948976517	0.180295154452324	-0.069001704454422	0.235513910651207	0.154675871133804	-0.0940342918038368	0.246957555413246	0.181952551007271	-0.145315632224083	0.253403306007385	0.123288474977016	-0.143797293305397	0.242638543248177	0.146617755293846	-0.145115524530411	0.265821099281311	0.145918279886246	
978	7.632812	-0.102792471647263	0.223707526922226	0.181591838598251	-0.0753946229815483	0.234989911317825	0.156021982431412	-0.100316934287548	0.246830523014069	0.183118790388107	-0.151370361447334	0.253863364458084	0.124402761459351	-0.150029852986336	0.243071466684341	0.147775039076805	-0.151114627718925	0.266307801008224	0.147008627653122	
